<?xml version="1.0" encoding="UTF-8" standalone="no"?>
<!DOCTYPE svg PUBLIC "-//W3C//DTD SVG 20010904//EN"
              "http://www.w3.org/TR/2001/REC-SVG-20010904/DTD/svg10.dtd">

<svg xmlns="http://www.w3.org/2000/svg"
     width="16.6667in" height="22.2222in"
     viewBox="0 0 1200 1600">
  <path id="hanse sac"
        fill="none" stroke="black" stroke-width="1"
        d="M 455.25,765.75
           C 455.25,765.75 485.82,758.19 515.27,770.55
             535.61,779.08 556.68,803.02 561.67,821.33
             563.63,828.54 568.08,845.44 566.25,862.13
             565.32,870.59 562.82,880.23 559.38,887.63
             556.60,893.59 553.13,897.67 550.00,901.88
             541.21,913.68 528.71,920.24 518.27,922.55
             512.97,923.71 507.86,924.75 504.27,924.55
             500.19,924.31 498.00,922.75 498.00,922.75
             498.00,922.75 511.33,911.72 516.18,892.91
             518.05,885.68 519.71,876.21 518.91,867.64
             517.95,857.40 514.07,848.09 511.00,840.50
             505.07,825.85 489.88,805.22 477.09,797.64
             466.99,791.65 456.39,789.61 450.55,790.18
             446.53,790.57 444.75,793.00 444.75,793.00" />
</svg>
