<?xml version="1.0" encoding="UTF-8" standalone="no"?>
<!DOCTYPE svg PUBLIC "-//W3C//DTD SVG 20010904//EN"
              "http://www.w3.org/TR/2001/REC-SVG-20010904/DTD/svg10.dtd">

<svg xmlns="http://www.w3.org/2000/svg"
     width="16.6667in" height="22.2222in"
     viewBox="0 0 1200 1600">
  <path id="jambe BG"
        fill="none" stroke="black" stroke-width="1"
        d="M 644.75,1170.25
           C 644.75,1170.25 644.65,1201.12 644.58,1223.64
             644.53,1236.57 644.50,1246.75 644.50,1246.75M 643.75,1325.00
           C 643.75,1325.00 643.75,1398.25 643.75,1398.50
             643.75,1398.75 707.50,1448.25 707.50,1448.25
             707.50,1448.25 708.59,1449.16 709.74,1450.39
             710.72,1451.44 711.79,1452.74 711.75,1453.75
             711.71,1454.67 711.19,1455.97 710.35,1456.57
             708.99,1457.52 707.08,1457.50 707.00,1457.50
             706.75,1457.50 650.00,1457.25 650.00,1457.25" />
</svg>
