<?xml version="1.0" encoding="UTF-8" standalone="no"?>
<!DOCTYPE svg PUBLIC "-//W3C//DTD SVG 20010904//EN"
              "http://www.w3.org/TR/2001/REC-SVG-20010904/DTD/svg10.dtd">

<svg xmlns="http://www.w3.org/2000/svg"
     width="16.6667in" height="22.2222in"
     viewBox="0 0 1200 1600">
  <path id="Visière"
        fill="none" stroke="black" stroke-width="1"
        d="M 836.50,394.00
           C 836.50,394.00 819.31,381.95 790.50,372.00
             758.51,360.95 712.54,351.88 667.00,351.67
             614.80,351.42 558.61,364.63 523.67,376.33
             499.57,384.40 487.00,392.33 487.00,392.33
             487.00,392.33 479.22,396.01 471.09,404.91
             464.25,412.40 457.33,423.76 452.88,438.13
             444.42,465.42 450.07,507.34 454.00,542.00
             457.35,571.54 466.32,602.11 478.50,627.00
             497.35,665.52 521.00,692.00 521.00,692.00
             521.00,692.00 538.77,712.87 568.91,728.91
             581.11,735.40 597.07,740.40 612.00,744.00
             661.65,755.96 726.50,738.63 726.50,738.63" />
</svg>
