<?xml version="1.0" encoding="UTF-8" standalone="no"?>
<!DOCTYPE svg PUBLIC "-//W3C//DTD SVG 20010904//EN"
              "http://www.w3.org/TR/2001/REC-SVG-20010904/DTD/svg10.dtd">

<svg xmlns="http://www.w3.org/2000/svg"
     width="16.6667in" height="22.2222in"
     viewBox="0 0 1200 1600">
  <path id="Bras écran"
        fill="none" stroke="black" stroke-width="1"
        d="M 448.00,793.00
           C 448.10,793.00 440.18,804.57 430.00,824.67
             414.78,854.73 393.75,898.81 378.67,929.67
             368.55,950.37 360.67,965.33 360.67,965.33
             360.67,965.33 356.28,970.99 357.33,975.67
             358.86,982.43 365.33,989.33 365.33,989.33
             365.33,989.33 369.58,993.33 375.33,1001.33
             387.94,1018.87 408.67,1048.33 408.67,1048.33
             408.67,1048.33 405.21,1054.72 406.00,1062.00
             406.71,1068.51 411.67,1076.00 411.67,1076.00
             411.67,1076.00 429.27,1107.83 446.33,1133.00
             458.09,1150.34 471.33,1164.00 471.33,1164.00
             471.33,1164.00 472.79,1168.68 477.67,1172.67
             481.01,1175.40 486.71,1177.54 491.67,1178.67
             497.13,1179.91 504.09,1181.08 509.33,1180.00
             515.58,1178.71 519.67,1175.00 519.67,1175.00
             519.67,1175.00 559.93,1159.72 584.67,1146.67
             598.80,1139.21 603.67,1130.67 603.67,1130.67
             603.67,1130.67 616.05,1116.75 616.67,1108.33
             617.51,1096.76 606.33,1085.67 606.33,1085.67
             606.33,1085.67 596.00,1072.00 596.00,1072.00
             596.00,1072.00 604.54,1065.27 606.33,1055.33
             607.61,1048.26 602.33,1037.00 602.33,1037.00
             602.33,1037.00 580.00,1007.33 580.00,1007.33
             580.00,1007.33 572.79,1000.28 567.67,999.67
             559.52,998.70 548.33,1004.67 548.33,1004.67
             548.33,1004.67 528.67,1014.33 528.67,1014.33
             528.67,1014.33 525.36,1012.62 523.67,1010.67
             520.65,1007.19 517.99,1002.02 514.33,997.67
             511.25,994.00 509.33,991.33 509.33,991.33
             509.33,991.33 505.93,986.00 501.67,986.00
             496.52,986.00 490.33,991.33 490.33,991.33
             490.33,991.33 471.64,1001.59 453.67,1014.33
             431.43,1030.10 409.00,1049.00 409.00,1049.00M 494.00,988.33
           C 494.00,988.33 478.59,978.61 478.67,963.33
             478.78,956.70 480.61,953.00 482.67,946.33
             486.51,933.89 494.33,925.00 494.33,925.00M 574.50,1042.50
           C 574.50,1042.50 595.75,1072.00 595.75,1072.25" />
</svg>
