<?xml version="1.0" encoding="UTF-8" standalone="no"?>
<!DOCTYPE svg PUBLIC "-//W3C//DTD SVG 20010904//EN"
              "http://www.w3.org/TR/2001/REC-SVG-20010904/DTD/svg10.dtd">

<svg xmlns="http://www.w3.org/2000/svg"
     width="16.6667in" height="22.2222in"
     viewBox="0 0 1200 1600">
  <path id="Casque"
        fill="none" stroke="black" stroke-width="1"
        d="M 524.33,775.67
           C 524.33,775.67 570.79,778.84 615.25,774.00
             641.36,771.16 667.53,765.26 682.00,761.25
             689.62,759.14 693.50,757.25 693.50,757.25
             693.50,757.25 752.86,734.72 795.63,674.38
             812.60,650.42 830.06,620.54 839.82,592.73
             851.21,560.28 853.50,531.50 853.50,531.50
             853.50,531.50 860.90,457.37 838.67,399.00
             829.20,374.15 817.34,350.35 804.00,331.33
             781.09,298.67 757.09,278.36 757.09,278.36
             757.09,278.36 736.63,260.55 705.50,243.50
             681.63,230.43 651.29,218.13 620.25,212.75
             586.88,206.97 552.06,207.57 523.75,211.75
             487.72,217.07 462.13,227.25 462.13,227.25
             462.13,227.25 427.52,240.17 390.91,268.36
             369.35,284.97 348.25,310.02 330.00,332.36
             318.22,346.79 310.93,363.29 304.18,378.73
             288.50,414.57 283.00,446.50 283.00,446.50
             283.00,446.50 275.86,483.91 281.75,532.50
             284.66,556.49 292.56,583.47 302.50,609.50
             312.53,635.77 329.90,662.43 347.75,683.50
             368.58,708.08 389.38,725.06 389.38,725.06
             389.38,725.06 405.49,736.78 423.27,747.27
             439.47,756.83 457.50,765.25 457.50,765.25" />
</svg>
