<?xml version="1.0" encoding="UTF-8" standalone="no"?>
<!DOCTYPE svg PUBLIC "-//W3C//DTD SVG 20010904//EN"
              "http://www.w3.org/TR/2001/REC-SVG-20010904/DTD/svg10.dtd">

<svg xmlns="http://www.w3.org/2000/svg"
     width="2.04167in" height="2.72222in"
     viewBox="0 0 147 196">
  <path id="Sans nom #2"
        fill="none" stroke="black" stroke-width="1"
        d="M 60.13,121.38
           C 60.13,121.38 57.52,122.78 55.25,124.38
             52.64,126.20 50.31,128.25 50.31,128.25
             50.31,128.25 49.63,129.12 49.73,130.00
             49.85,131.05 50.57,132.27 50.57,132.30
             50.57,132.34 52.44,135.52 54.35,138.39
             55.91,140.73 57.75,142.75 57.75,142.75
             57.75,142.75 57.92,143.21 58.60,143.69
             59.12,144.06 60.06,144.48 60.78,144.56
             62.73,144.76 65.00,143.50 65.00,143.50
             65.00,143.50 68.13,142.24 70.58,140.82
             72.63,139.64 74.06,138.25 74.06,138.25
             74.06,138.25 75.62,136.50 75.41,135.19
             75.28,134.40 74.69,133.71 74.25,133.06
             73.55,132.04 72.94,131.25 72.94,131.25
             72.94,131.25 74.23,130.21 74.28,128.88
             74.32,127.72 73.19,126.38 73.19,126.38
             73.19,126.38 72.62,125.57 71.91,124.63
             71.44,124.01 70.89,123.13 70.31,122.78
             68.95,121.97 67.50,122.88 67.50,122.88
             67.50,122.88 64.75,124.25 64.75,124.25
             64.75,124.25 64.35,123.71 63.94,123.19
             63.16,122.19 62.13,120.88 62.13,120.88
             62.13,120.88 61.55,120.70 61.06,120.81
             60.58,120.92 60.19,121.31 60.19,121.31" />
</svg>
