<?xml version="1.0" encoding="UTF-8" standalone="no"?>
<!DOCTYPE svg PUBLIC "-//W3C//DTD SVG 20010904//EN"
              "http://www.w3.org/TR/2001/REC-SVG-20010904/DTD/svg10.dtd">

<svg xmlns="http://www.w3.org/2000/svg"
     width="16.6667in" height="22.2222in"
     viewBox="0 0 1200 1600">
  <path id="genouillère écran"
        fill="none" stroke="black" stroke-width="1"
        d="M 606.36,1267.82
           C 606.36,1267.82 598.51,1266.32 587.27,1268.91
             572.90,1272.23 562.33,1280.67 562.33,1280.67
             562.33,1280.67 560.58,1283.46 560.55,1286.36
             560.45,1295.45 559.09,1315.71 559.45,1329.09
             559.66,1336.69 561.67,1341.90 561.67,1342.00
             561.67,1342.08 566.43,1350.30 571.45,1351.27
             576.52,1352.26 582.99,1354.63 589.45,1354.73
             601.88,1354.91 614.00,1352.00 614.00,1352.00
             614.00,1352.00 618.10,1346.62 618.18,1339.82
             618.35,1326.06 621.34,1297.78 620.36,1281.64
             619.73,1271.10 606.91,1267.64 606.91,1267.64" />
</svg>
