<?xml version="1.0" encoding="UTF-8" standalone="no"?>
<!DOCTYPE svg PUBLIC "-//W3C//DTD SVG 20010904//EN"
              "http://www.w3.org/TR/2001/REC-SVG-20010904/DTD/svg10.dtd">

<svg xmlns="http://www.w3.org/2000/svg"
     width="16.6667in" height="22.2222in"
     viewBox="0 0 1200 1600">
  <path id="jambe écran"
        fill="none" stroke="black" stroke-width="1"
        d="M 606.18,1185.27
           C 606.18,1185.27 606.29,1199.33 606.18,1215.64
             606.03,1238.75 605.64,1266.55 605.64,1266.55M 604.55,1355.09
           C 604.55,1355.18 604.91,1370.91 604.73,1386.18
             604.55,1400.57 603.45,1414.18 603.45,1414.18
             603.45,1414.18 681.25,1487.47 681.25,1487.47
             681.25,1487.47 683.77,1489.51 685.59,1491.88
             686.85,1493.50 687.78,1495.52 687.67,1497.00
             687.57,1498.30 686.13,1499.77 684.53,1500.41
             682.56,1501.20 680.38,1501.00 680.38,1501.00
             680.38,1501.00 482.73,1494.55 482.73,1494.55
             482.73,1494.55 482.18,1187.27 482.18,1187.27
             482.18,1187.27 449.51,1172.58 431.67,1145.33
             411.86,1115.10 406.67,1072.00 406.67,1072.00" />
</svg>
